<?xml version="1.0" encoding="utf-8"?>
<!-- Generator: Adobe Illustrator 26.3.1, SVG Export Plug-In . SVG Version: 6.00 Build 0)  -->
<svg version="1.1" id="Layer_1" xmlns="http://www.w3.org/2000/svg" xmlns:xlink="http://www.w3.org/1999/xlink" x="0px" y="0px"
	 viewBox="0 0 942.71 313.37" style="enable-background:new 0 0 942.71 313.37;" xml:space="preserve">
<g>
	<path d="M744.81,79.56c-7.86,0-15.15,2.33-21.29,6.27v-5.94C722.78,64.11,709.88,59,706.5,57.38h-0.38v98.28
		c0,0,11.58-1.25,15.92-7.6c6.38,4.61,14.24,7.35,22.77,7.35c21.38,0,38.69-16.99,38.69-37.92S766.14,79.56,744.81,79.56z
		 M744.81,138.46c-11.87,0-21.45-9.43-21.45-21.02c0-11.59,9.59-21.02,21.45-21.02c11.87,0,21.43,9.43,21.43,21.02
		C766.24,129.03,756.63,138.46,744.81,138.46z M826.62,79.56c-21.38,0-38.71,16.99-38.71,37.92s17.31,37.92,38.71,37.92
		c8.82,0,16.95-2.91,23.49-7.81c4,6.56,15.2,7.81,15.2,7.81v-37.92C865.31,96.55,847.95,79.56,826.62,79.56z M826.62,138.46
		c-11.87,0-21.45-9.43-21.45-21.02c0-11.59,9.59-21.02,21.45-21.02c11.87,0,21.43,9.43,21.43,21.02
		C848.05,129.03,838.44,138.46,826.62,138.46z M518.07,79.56c-21.34,0-38.68,16.99-38.68,37.92s17.34,37.92,38.68,37.92
		c8.86,0,16.97-2.91,23.48-7.81c4,6.56,15.2,7.81,15.2,7.81v-37.92C556.75,96.55,539.45,79.56,518.07,79.56z M518.07,138.46
		c-11.82,0-21.42-9.43-21.42-21.02c0-11.59,9.6-21.02,21.42-21.02c11.82,0,21.46,9.43,21.46,21.02
		C539.53,129.03,529.93,138.46,518.07,138.46z M603.05,79.56c4.91,0,9.56,0.91,13.88,2.53v20.02c-3.69-3.16-8.56-5.11-13.88-5.11
		c-11.7,0-21.13,9.3-21.13,20.73v37.67h-17.8V86.62c0,0,7.29,0.33,12.03,3.57c7-6.56,16.47-10.68,26.94-10.68 M698.43,117.36
		c-0.1,20.98-16.68,38.01-37.03,38.01c-20.35,0-36.96-17.03-37.08-38.01v-32.4c0,0,17.64,4.4,17.81,23.39v8.81
		c0,11.46,8.63,20.77,19.22,20.77c10.59,0,19.25-9.31,19.25-20.77v-18.4c0.74-15.83,14-20.89,17.43-22.52h0.36v41.16L698.43,117.36z
		"/>
	<path d="M207.37,77.4v142.78h-37.43v-56.5h-55.09v56.5H77.4V77.4h37.43v54.16h55.09V77.4H207.37z M302.08,127.61
		c0,10.71-6.02,17.9-19.54,17.9H260.9v-35.79h21.65C296.06,109.71,302.08,116.9,302.08,127.61z M286.45,176.69
		c30.95,0,51.89-17.19,51.89-49.08c0-31.89-20.94-49.31-51.89-49.31h-62.52v142.78h36.96v-44.39H286.45z M349.05,78.3v142.78h102.06
		V188.8h-65.33v-24.7h59.78v-31.42h-59.78v-22.27h65.33V78.3H349.05z"/>
	<path d="M489.95,183.01v3.49c2.04-2.38,5.79-4.34,10.22-4.34c8.6,0,13.46,5.62,13.46,14.05v24.87h-10.56v-22.65
		c0-4-2.04-6.73-6.22-6.73c-3.24,0-6.05,1.96-6.9,5.28v24.1h-10.56v-38.06H489.95z M530.99,204.47c0.85,6.22,5.36,8.77,10.99,8.77
		c4.17,0,7.15-0.94,10.9-3.32v8.69c-3.15,2.3-7.41,3.32-12.52,3.32c-11.58,0-19.5-7.49-19.5-19.59c0-11.92,7.49-20.18,17.88-20.18
		c11.07,0,16.78,7.66,16.78,18.9v3.41H530.99z M531.33,197.57h14.39c-0.25-4.09-2.55-6.98-6.73-6.98
		C535.5,190.59,532.52,192.8,531.33,197.57z M567.35,221.07v-29.55h-7.24v-8.52h7.24v-10.3h10.56v10.3H586v8.52h-8.09v29.55H567.35z
		 M634.54,183.01h10.22l-11.58,38.06h-9.71l-6.22-23.33l-6.22,23.33h-9.71l-11.58-38.06h10.56l6.81,24.27l6.22-24.27h8.09l6.3,24.27
		L634.54,183.01z M667.15,221.93c-11.07,0-18.65-8.17-18.65-19.84c0-11.75,7.58-19.93,18.65-19.93c11.07,0,18.65,8.17,18.65,19.93
		C685.8,213.75,678.22,221.93,667.15,221.93z M667.15,191.1c-5.28,0-8.17,4.6-8.17,10.99c0,6.3,2.9,10.9,8.17,10.9
		c5.28,0,8.17-4.6,8.17-10.9C675.33,195.7,672.43,191.1,667.15,191.1z M716.46,193.4c-1.45-0.85-3.32-1.28-5.28-1.28
		c-3.58,0-6.47,1.87-7.24,5.36v23.59h-10.56v-38.06h10.56v3.75c1.62-2.72,4.77-4.6,8.52-4.6c1.79,0,3.41,0.34,4,0.68V193.4z
		 M748.39,221.07l-13.71-17.54v17.54h-10.56v-55.35h10.56v32.36l13.03-15.07h12.69l-15.84,17.46l16.18,20.61H748.39z M771.47,178.07
		c-3.41,0-6.3-2.47-6.3-6.05c0-3.49,2.9-6.05,6.3-6.05c3.32,0,6.22,2.55,6.22,6.05C777.68,175.6,774.79,178.07,771.47,178.07z
		 M766.19,221.07v-38.06h10.56v38.06H766.19z M797.35,183.01v3.49c2.04-2.38,5.79-4.34,10.22-4.34c8.6,0,13.46,5.62,13.46,14.05
		v24.87h-10.56v-22.65c0-4-2.04-6.73-6.22-6.73c-3.24,0-6.05,1.96-6.9,5.28v24.1h-10.56v-38.06H797.35z M854.75,216.73
		c-1.7,1.96-5.02,3.83-9.28,3.83c-10.99,0-17.2-8.86-17.2-19.16c0-10.39,6.22-19.25,17.2-19.25c4.26,0,7.58,1.87,9.28,3.83v-2.98
		h10.56v33.89c0,13.96-10.3,19.07-20.69,19.07c-5.19,0-10.05-1.28-13.11-3.24v-10.39c3.92,3.41,8,4.68,12.94,4.68
		c5.7,0,10.3-2.89,10.3-9.11V216.73z M854.75,194.93c-1.19-2.13-3.92-3.92-7.07-3.92c-5.62,0-8.86,4.34-8.86,10.39
		c0,5.96,3.24,10.3,8.86,10.3c3.15,0,5.88-1.7,7.07-3.92V194.93z"/>
</g>
</svg>
